<?xml version="1.0" encoding="UTF-8"?>
<svg version="1.1" xmlns="http://www.w3.org/2000/svg" width="180" height="180">
<path d="M0 0 C1.90304331 1.38639678 3.67208754 2.8380191 5.4375 4.39453125 C6.08589844 4.925625 6.73429688 5.45671875 7.40234375 6.00390625 C12.60488977 10.35766837 17.12786374 15.16202339 21.4375 20.39453125 C22.02402344 21.09707031 22.61054688 21.79960938 23.21484375 22.5234375 C31.32157441 33.09343779 37.08053373 47.14686055 38.4375 60.39453125 C38.64375 61.61140625 38.85 62.82828125 39.0625 64.08203125 C41.35547127 84.88862245 37.08367289 104.86901021 25.4375 122.39453125 C24.82132813 123.33167969 24.20515625 124.26882812 23.5703125 125.234375 C20.05210163 130.43869938 20.05210163 130.43869938 18.4375 132.39453125 C17.7775 132.39453125 17.1175 132.39453125 16.4375 132.39453125 C16.20417969 132.96300781 15.97085938 133.53148437 15.73046875 134.1171875 C14.12390008 136.94688398 12.18663368 138.6789874 9.75 140.83203125 C8.92113281 141.57324219 8.09226563 142.31445312 7.23828125 143.078125 C-12.91306986 159.74444468 -35.93256316 164.12208405 -61.5625 162.39453125 C-72.76524374 161.20285698 -83.62038567 156.49153174 -93.5625 151.39453125 C-93.5625 150.73453125 -93.5625 150.07453125 -93.5625 149.39453125 C-94.119375 149.29140625 -94.67625 149.18828125 -95.25 149.08203125 C-98.0394101 148.25274717 -100.1764064 147.05154069 -102.5625 145.39453125 C-102.5625 144.73453125 -102.5625 144.07453125 -102.5625 143.39453125 C-103.14 143.12640625 -103.7175 142.85828125 -104.3125 142.58203125 C-106.61800043 141.36523936 -108.58306192 140.09119246 -110.5625 138.39453125 C-110.5625 137.73453125 -110.5625 137.07453125 -110.5625 136.39453125 C-111.4596875 136.02328125 -111.4596875 136.02328125 -112.375 135.64453125 C-114.87876919 134.213806 -116.04322388 132.82537305 -117.5625 130.39453125 C-117.5625 129.73453125 -117.5625 129.07453125 -117.5625 128.39453125 C-118.2225 128.39453125 -118.8825 128.39453125 -119.5625 128.39453125 C-132.81296752 109.99597922 -139.93831018 87.40304769 -136.94140625 64.6796875 C-136.25724827 60.5535801 -135.48518955 56.47445101 -134.5625 52.39453125 C-134.40394531 51.57726562 -134.24539062 50.76 -134.08203125 49.91796875 C-131.9924304 40.63397034 -127.16696501 32.62851165 -122.5625 24.39453125 C-121.9025 24.39453125 -121.2425 24.39453125 -120.5625 24.39453125 C-120.315 23.67265625 -120.0675 22.95078125 -119.8125 22.20703125 C-118.43980408 19.11846543 -116.83896704 16.88441707 -114.5625 14.39453125 C-113.9025 14.39453125 -113.2425 14.39453125 -112.5625 14.39453125 C-112.5625 13.73453125 -112.5625 13.07453125 -112.5625 12.39453125 C-110.8828125 10.66796875 -110.8828125 10.66796875 -108.6875 8.76953125 C-107.96820313 8.13789063 -107.24890625 7.50625 -106.5078125 6.85546875 C-104.5625 5.39453125 -104.5625 5.39453125 -102.5625 5.39453125 C-102.5625 4.73453125 -102.5625 4.07453125 -102.5625 3.39453125 C-92.34180454 -5.21104197 -79.14468715 -8.95845798 -66.5625 -12.60546875 C-65.6336499 -12.87701782 -65.6336499 -12.87701782 -64.68603516 -13.15405273 C-42.61561954 -17.84572881 -18.7672682 -11.75815127 0 0 Z M-46.5625 -10.60546875 C-45.11832163 -6.54092551 -43.12911153 -3.27771569 -40.6875 0.26953125 C-37.77123986 4.56773089 -35.09013863 8.86221371 -32.5625 13.39453125 C-30.91926343 16.07610281 -29.24604713 18.73811466 -27.5625 21.39453125 C-15.30729362 20.51915937 -3.35159815 16.69148243 8.4375 13.39453125 C8.4375 12.73453125 8.4375 12.07453125 8.4375 11.39453125 C4.96744329 8.46543395 1.18306441 5.95703376 -2.5625 3.39453125 C-3.36429688 2.83894531 -4.16609375 2.28335937 -4.9921875 1.7109375 C-17.26518391 -6.2437824 -32.15946123 -9.46284772 -46.5625 -10.60546875 Z M-102.5625 8.39453125 C-102.5625 9.05453125 -102.5625 9.71453125 -102.5625 10.39453125 C-104.5425 11.38453125 -104.5425 11.38453125 -106.5625 12.39453125 C-101.46276546 15.25254669 -95.72767916 16.23280799 -90.09033203 17.59106445 C-88.06665601 18.08102502 -86.04711054 18.58599539 -84.02734375 19.09179688 C-82.74988281 19.40181641 -81.47242187 19.71183594 -80.15625 20.03125 C-78.98771484 20.31701904 -77.81917969 20.60278809 -76.61523438 20.8972168 C-73.75395113 21.36334236 -72.21177816 21.4821742 -69.5625 20.39453125 C-67.98269883 18.70840931 -67.98269883 18.70840931 -66.6875 16.51953125 C-65.91986328 15.30523438 -65.91986328 15.30523438 -65.13671875 14.06640625 C-62.99188477 10.42604287 -61.00031061 6.71206892 -59.01953125 2.98046875 C-57.70298842 0.64386995 -56.29295975 -1.46184081 -54.6875 -3.60546875 C-52.27349133 -6.40075428 -52.27349133 -6.40075428 -52.5625 -9.60546875 C-69.5643335 -10.81988543 -89.74752909 -2.78297116 -102.5625 8.39453125 Z M-49.5625 -6.60546875 C-49.8925 -5.28546875 -50.2225 -3.96546875 -50.5625 -2.60546875 C-51.2225 -2.60546875 -51.8825 -2.60546875 -52.5625 -2.60546875 C-52.87703125 -2.02539062 -53.1915625 -1.4453125 -53.515625 -0.84765625 C-55.51009687 2.79285566 -57.48231247 6.37345862 -59.875 9.76953125 C-61.8328788 12.29501683 -61.8328788 12.29501683 -61.5625 15.39453125 C-62.2225 15.39453125 -62.8825 15.39453125 -63.5625 15.39453125 C-64.26476141 16.6362982 -64.94879109 17.88838724 -65.625 19.14453125 C-66.19927734 20.18867187 -66.19927734 20.18867187 -66.78515625 21.25390625 C-67.73281567 23.86354124 -67.48353443 24.80686308 -66.5625 27.39453125 C-66.13324219 28.69197266 -66.13324219 28.69197266 -65.6953125 30.015625 C-65.19644531 31.40974609 -65.19644531 31.40974609 -64.6875 32.83203125 C-64.19636719 34.22228516 -64.19636719 34.22228516 -63.6953125 35.640625 C-62.55162272 38.4209743 -61.17232124 40.86021267 -59.5625 43.39453125 C-58.72847656 43.31074219 -57.89445312 43.22695313 -57.03515625 43.140625 C-50.32454941 42.53336505 -44.22533545 42.37816652 -37.5625 43.39453125 C-37.15257813 42.36972656 -36.74265625 41.34492187 -36.3203125 40.2890625 C-35.23697917 37.58072917 -34.15364583 34.87239583 -33.0703125 32.1640625 C-32.81411133 31.51775879 -32.55791016 30.87145508 -32.29394531 30.20556641 C-31.65980579 28.63545728 -30.9857364 27.08158803 -30.3046875 25.53125 C-30.05976562 24.82613281 -29.81484375 24.12101562 -29.5625 23.39453125 C-30.0575 22.40453125 -30.0575 22.40453125 -30.5625 21.39453125 C-31.2225 21.39453125 -31.8825 21.39453125 -32.5625 21.39453125 C-32.65917969 20.84410156 -32.75585938 20.29367188 -32.85546875 19.7265625 C-33.74417133 16.79531698 -35.18773048 14.63642001 -36.875 12.08203125 C-38.9139012 8.95294206 -40.92987817 5.84368957 -42.75 2.58203125 C-44.56293785 -0.60623876 -46.44560406 -3.61261587 -48.5625 -6.60546875 C-48.8925 -6.60546875 -49.2225 -6.60546875 -49.5625 -6.60546875 Z M12.4375 16.39453125 C9.9465153 25.37797608 7.70712783 34.37607383 5.74511719 43.48974609 C5.09115834 46.51715929 4.4178768 49.45340085 3.4375 52.39453125 C4.530625 53.07515625 5.62375 53.75578125 6.75 54.45703125 C14.41313351 59.24987447 22.05540171 64.05078403 29.46484375 69.23046875 C31.46608907 70.41140163 33.16671917 70.95764724 35.4375 71.39453125 C35.61376389 65.74779175 35.13432115 60.9068571 33.6875 55.45703125 C33.50558105 54.75610352 33.32366211 54.05517578 33.13623047 53.33300781 C31.71451491 48.04113472 29.91120204 43.26409157 27.4375 38.39453125 C27.00695312 37.45222656 26.57640625 36.50992188 26.1328125 35.5390625 C22.78057623 28.39064515 18.82004241 22.20099704 13.4375 16.39453125 C13.1075 16.39453125 12.7775 16.39453125 12.4375 16.39453125 Z M-111.5625 17.39453125 C-112.2225 18.71453125 -112.8825 20.03453125 -113.5625 21.39453125 C-114.2225 21.39453125 -114.8825 21.39453125 -115.5625 21.39453125 C-115.8925 22.71453125 -116.2225 24.03453125 -116.5625 25.39453125 C-117.2225 25.39453125 -117.8825 25.39453125 -118.5625 25.39453125 C-126.34550186 36.55144524 -130.13914015 48.14473259 -132.5625 61.39453125 C-132.71976563 62.25304687 -132.87703125 63.1115625 -133.0390625 63.99609375 C-133.43794496 66.31876283 -133.43794496 66.31876283 -133.5625 69.39453125 C-132.9025 70.05453125 -132.2425 70.71453125 -131.5625 71.39453125 C-130.2425 70.73453125 -128.9225 70.07453125 -127.5625 69.39453125 C-127.5625 68.73453125 -127.5625 68.07453125 -127.5625 67.39453125 C-126.99660156 67.28367188 -126.43070313 67.1728125 -125.84765625 67.05859375 C-121.34463562 65.75002365 -117.51480105 62.8592301 -113.5625 60.39453125 C-112.551875 59.78480469 -111.54125 59.17507812 -110.5 58.546875 C-109.51 57.93972656 -108.52 57.33257812 -107.5 56.70703125 C-106.58089844 56.14628906 -105.66179687 55.58554688 -104.71484375 55.0078125 C-102.28253837 53.50372762 -102.28253837 53.50372762 -101.5625 50.39453125 C-101.83318566 48.34710878 -101.83318566 48.34710878 -102.453125 46.1484375 C-102.66670654 45.31610596 -102.88028809 44.48377441 -103.1003418 43.6262207 C-103.335354 42.74538818 -103.57036621 41.86455566 -103.8125 40.95703125 C-104.28279858 39.14980371 -104.75285126 37.34251217 -105.22265625 35.53515625 C-105.45355957 34.65666016 -105.68446289 33.77816406 -105.92236328 32.87304688 C-106.47475337 30.73427334 -106.99772684 28.59326518 -107.49609375 26.44140625 C-107.74488281 25.3740625 -107.99367188 24.30671875 -108.25 23.20703125 C-108.46011719 22.28535156 -108.67023438 21.36367188 -108.88671875 20.4140625 C-109.36329951 18.19984566 -109.36329951 18.19984566 -111.5625 17.39453125 Z M-105.5625 17.39453125 C-107.11027016 20.49007158 -105.78575806 23.25671597 -104.9375 26.45703125 C-104.75219727 27.15860352 -104.56689453 27.86017578 -104.37597656 28.58300781 C-103.97794781 30.07909259 -103.57680406 31.57435145 -103.17285156 33.06884766 C-102.56048171 35.40222176 -102.0076144 37.74421288 -101.4609375 40.09375 C-99.81959083 47.70641884 -99.81959083 47.70641884 -95.88671875 54.2109375 C-93.77806669 55.32420101 -91.88598999 55.8542726 -89.5625 56.39453125 C-87.39328282 57.13712216 -85.22670023 57.88744354 -83.0625 58.64453125 C-81.23108158 59.23384906 -79.39838736 59.81928654 -77.5625 60.39453125 C-76.69625 58.75484375 -76.69625 58.75484375 -75.8125 57.08203125 C-74.10577349 54.05868715 -72.45719132 52.35878607 -69.5625 50.39453125 C-69.5625 49.73453125 -69.5625 49.07453125 -69.5625 48.39453125 C-68.758125 48.12640625 -67.95375 47.85828125 -67.125 47.58203125 C-65.8565625 46.99421875 -65.8565625 46.99421875 -64.5625 46.39453125 C-63.35943947 42.78534965 -63.85529356 42.04467961 -65.3125 38.64453125 C-65.68632813 37.7628125 -66.06015625 36.88109375 -66.4453125 35.97265625 C-66.81398437 35.121875 -67.18265625 34.27109375 -67.5625 33.39453125 C-67.99175781 32.33492187 -67.99175781 32.33492187 -68.4296875 31.25390625 C-69.5545384 28.49396281 -70.43308227 26.52394898 -72.5625 24.39453125 C-74.76211933 23.68730223 -74.76211933 23.68730223 -77.32421875 23.17578125 C-78.27876953 22.96566406 -79.23332031 22.75554688 -80.21679688 22.5390625 C-81.71823242 22.22001953 -81.71823242 22.22001953 -83.25 21.89453125 C-85.21263572 21.46927203 -87.17488539 21.04222671 -89.13671875 20.61328125 C-90.07177246 20.40960938 -91.00682617 20.2059375 -91.97021484 19.99609375 C-94.18524318 19.482077 -96.34460145 18.89766749 -98.51953125 18.23828125 C-101.67863129 17.21639976 -101.67863129 17.21639976 -105.5625 17.39453125 Z M7.4375 16.39453125 C6.00083984 16.75804688 6.00083984 16.75804688 4.53515625 17.12890625 C3.8999707 17.2885083 3.26478516 17.44811035 2.61035156 17.61254883 C1.18828205 17.97102748 -0.23293165 18.33291629 -1.65332031 18.69799805 C-5.51040888 19.6782922 -9.35782703 20.56925779 -13.26953125 21.3046875 C-14.02951416 21.45647461 -14.78949707 21.60826172 -15.57250977 21.76464844 C-17.0359034 22.05365871 -18.50407091 22.31970511 -19.97631836 22.55957031 C-24.07205509 23.39705605 -25.4182746 24.19114899 -27.8671875 27.64453125 C-28.45655943 28.88327394 -29.02245826 30.13350086 -29.5625 31.39453125 C-30.07554688 32.43996094 -30.58859375 33.48539063 -31.1171875 34.5625 C-31.55289063 35.55894531 -31.98859375 36.55539063 -32.4375 37.58203125 C-32.88867188 38.58621094 -33.33984375 39.59039062 -33.8046875 40.625 C-34.79186869 43.29623808 -34.79186869 43.29623808 -33.94921875 45.5625 C-32.34085552 47.6873517 -30.68807359 49.00257279 -28.5 50.51953125 C-24.65972222 53.20008681 -24.65972222 53.20008681 -23.5625 55.39453125 C-22.9025 55.39453125 -22.2425 55.39453125 -21.5625 55.39453125 C-21.43875 56.03390625 -21.315 56.67328125 -21.1875 57.33203125 C-20.98125 58.01265625 -20.775 58.69328125 -20.5625 59.39453125 C-19.9025 59.72453125 -19.2425 60.05453125 -18.5625 60.39453125 C-16.04601463 59.53114692 -13.63594398 58.60917205 -11.1875 57.58203125 C-10.51460937 57.30810547 -9.84171875 57.03417969 -9.1484375 56.75195312 C-7.27878349 55.98458529 -5.42020052 55.19040078 -3.5625 54.39453125 C-2.87309326 54.17821045 -2.18368652 53.96188965 -1.47338867 53.73901367 C1.48790116 51.65547935 1.83207134 48.69863423 2.61328125 45.33984375 C2.78756149 44.6418869 2.96184174 43.94393005 3.1414032 43.224823 C3.50617838 41.74896972 3.86290983 40.27110838 4.2121582 38.79150391 C4.74747658 36.53019076 5.30999263 34.27700084 5.87695312 32.0234375 C6.22819705 30.58763846 6.57785945 29.15145142 6.92578125 27.71484375 C7.09338455 27.04180206 7.26098785 26.36876038 7.43367004 25.67532349 C8.22209487 22.28304073 8.71154898 19.70025669 7.4375 16.39453125 Z M-65.5625 49.39453125 C-65.5625 50.05453125 -65.5625 50.71453125 -65.5625 51.39453125 C-66.18125 51.64203125 -66.8 51.88953125 -67.4375 52.14453125 C-69.91318687 53.60081764 -70.51375002 54.77265631 -71.5625 57.39453125 C-72.2225 57.39453125 -72.8825 57.39453125 -73.5625 57.39453125 C-78.46338698 66.83158805 -79.72114384 74.6642251 -76.50390625 84.921875 C-73.54864418 92.68403638 -67.73300517 97.95136495 -60.5 101.76953125 C-53.03054247 104.80838747 -44.01079754 104.78951925 -36.5625 101.70703125 C-29.05953816 97.71934598 -23.5870469 92.30033387 -20.80859375 84.1953125 C-18.43837642 74.69786822 -19.13154591 67.16380624 -23.5625 58.39453125 C-27.2599219 52.36910296 -33.49919883 48.64254284 -39.9375 46.01953125 C-49.4590524 44.37788428 -56.71272837 45.56020079 -65.5625 49.39453125 Z M-106.875 59.39453125 C-110.65491189 61.87330776 -114.43346073 64.3398175 -118.30859375 66.66796875 C-118.89793701 67.02246094 -119.48728027 67.37695312 -120.09448242 67.7421875 C-121.73237639 68.72161876 -123.37391156 69.69495322 -125.015625 70.66796875 C-127.77543925 72.30503221 -127.77543925 72.30503221 -129.5625 75.39453125 C-128.91023437 75.78125 -128.25796875 76.16796875 -127.5859375 76.56640625 C-119.5893129 81.3313566 -119.5893129 81.3313566 -116.125 83.76953125 C-113.64596388 85.66230226 -113.64596388 85.66230226 -110.5625 85.39453125 C-110.5625 86.05453125 -110.5625 86.71453125 -110.5625 87.39453125 C-109.14921871 88.21290567 -107.73171654 89.02399344 -106.3125 89.83203125 C-105.52359375 90.28449219 -104.7346875 90.73695312 -103.921875 91.203125 C-100.87345423 92.77862923 -100.87345423 92.77862923 -97.5625 93.39453125 C-94.40377057 92.27082288 -94.40377057 92.27082288 -91.125 90.58203125 C-87.30669812 88.71933705 -83.53103941 86.91518654 -79.5625 85.39453125 C-79.67078125 84.30785156 -79.67078125 84.30785156 -79.78125 83.19921875 C-80.43609968 76.3778679 -80.98395366 70.14079544 -79.5625 63.39453125 C-82.68504943 62.0554054 -85.81092358 60.72422467 -88.9375 59.39453125 C-89.82695313 59.01296875 -90.71640625 58.63140625 -91.6328125 58.23828125 C-92.48359375 57.87734375 -93.334375 57.51640625 -94.2109375 57.14453125 C-94.99645996 56.809375 -95.78198242 56.47421875 -96.59130859 56.12890625 C-100.91862941 54.5167461 -103.34784415 57.05478171 -106.875 59.39453125 Z M-3.8125 57.01953125 C-8.36488937 59.29572594 -12.86967105 61.30882949 -17.5625 63.39453125 C-17.5625 70.65453125 -17.5625 77.91453125 -17.5625 85.39453125 C-7.08792974 91.37496883 -7.08792974 91.37496883 4.4375 92.39453125 C7.05913242 90.83725542 9.45502495 89.09970564 11.890625 87.265625 C14.21975014 85.55450392 16.52291657 84.14003058 19.0625 82.76953125 C22.07997771 81.13977056 25.06245621 79.47781775 28 77.70703125 C28.66128906 77.31128906 29.32257813 76.91554688 30.00390625 76.5078125 C30.47699219 76.14042969 30.95007813 75.77304688 31.4375 75.39453125 C31.4375 74.73453125 31.4375 74.07453125 31.4375 73.39453125 C29.00879458 71.71914637 26.58549538 70.16602585 24.0625 68.64453125 C23.33313232 68.19787109 22.60376465 67.75121094 21.85229492 67.29101562 C20.39001439 66.39712126 18.92575908 65.5064487 17.45947266 64.61914062 C15.74233484 63.57915472 14.03246559 62.52718253 12.32421875 61.47265625 C4.67549426 56.07293764 4.67549426 56.07293764 -3.8125 57.01953125 Z M-132.5625 77.39453125 C-134.05492908 81.35403697 -133.16747767 85.00231152 -132.375 89.01953125 C-132.23553955 89.73592773 -132.0960791 90.45232422 -131.95239258 91.19042969 C-130.77699466 96.91444329 -129.08799833 102.11394384 -126.5625 107.39453125 C-126.10746094 108.37035156 -125.65242188 109.34617187 -125.18359375 110.3515625 C-122.17567763 116.59514818 -119.04150972 123.05209798 -114.5625 128.39453125 C-113.9025 128.39453125 -113.2425 128.39453125 -112.5625 128.39453125 C-112.2325 129.38453125 -111.9025 130.37453125 -111.5625 131.39453125 C-109.36329951 130.58921684 -109.36329951 130.58921684 -108.88671875 128.375 C-108.67660156 127.45332031 -108.46648437 126.53164062 -108.25 125.58203125 C-107.99992187 124.5146875 -107.74984375 123.44734375 -107.4921875 122.34765625 C-107.35006836 121.73470703 -107.20794922 121.12175781 -107.06152344 120.49023438 C-106.48554346 118.07134391 -105.87376491 115.66292527 -105.2578125 113.25390625 C-104.91617065 111.91356323 -104.91617065 111.91356323 -104.56762695 110.54614258 C-104.10958248 108.75126053 -103.64981247 106.95681787 -103.18823242 105.1628418 C-102.97787354 104.33051025 -102.76751465 103.49817871 -102.55078125 102.640625 C-102.36040283 101.89482178 -102.17002441 101.14901855 -101.97387695 100.38061523 C-101.46108774 98.24296383 -101.46108774 98.24296383 -101.5625 95.39453125 C-103.02236328 94.56695312 -103.02236328 94.56695312 -104.51171875 93.72265625 C-107.32403417 92.11642825 -110.11450266 90.47786177 -112.89453125 88.81640625 C-113.62994141 88.378125 -114.36535156 87.93984375 -115.12304688 87.48828125 C-116.64563021 86.5797493 -118.16642069 85.66820705 -119.68554688 84.75390625 C-120.41451172 84.32078125 -121.14347656 83.88765625 -121.89453125 83.44140625 C-122.55171143 83.04791992 -123.2088916 82.65443359 -123.88598633 82.24902344 C-125.5458638 81.2431637 -125.5458638 81.2431637 -127.5625 81.39453125 C-127.5625 80.73453125 -127.5625 80.07453125 -127.5625 79.39453125 C-130.0375 78.40453125 -130.0375 78.40453125 -132.5625 77.39453125 Z M29.8125 79.39453125 C28.69875 80.05453125 27.585 80.71453125 26.4375 81.39453125 C26.4375 82.05453125 26.4375 82.71453125 26.4375 83.39453125 C25.59251953 83.55888672 25.59251953 83.55888672 24.73046875 83.7265625 C17.0677718 85.95879619 9.98175017 91.9368536 3.4375 96.39453125 C6.00554381 108.53176624 8.99958598 120.47455069 12.4375 132.39453125 C15.77186496 129.189447 18.03597021 126.85394422 19.4375 122.39453125 C20.0975 122.39453125 20.7575 122.39453125 21.4375 122.39453125 C29.39724132 108.42634441 35.79514132 93.84603201 35.4375 77.39453125 C32.97448577 77.39453125 31.91686722 78.14749882 29.8125 79.39453125 Z M-79.5625 88.39453125 C-82.12671476 89.15597936 -82.12671476 89.15597936 -84.8125 90.58203125 C-87.98496441 92.13689728 -90.80246692 93.46305656 -94.21484375 94.4375 C-98.54233895 96.96734259 -98.96195202 98.99004511 -100.21289062 103.68359375 C-100.43138672 104.61945313 -100.64988281 105.5553125 -100.875 106.51953125 C-101.11283203 107.4321875 -101.35066406 108.34484375 -101.59570312 109.28515625 C-102.28880664 111.98077214 -102.93427477 114.68312513 -103.5625 117.39453125 C-103.76262695 118.2455542 -103.96275391 119.09657715 -104.16894531 119.97338867 C-105.06397016 123.86800959 -105.82268351 127.36168689 -105.5625 131.39453125 C-99.43946881 130.72705955 -93.60464692 129.5482764 -87.65698242 127.9609375 C-84.51405969 127.12584202 -81.47796663 126.38154149 -78.2578125 125.88671875 C-75.30412283 125.38243027 -73.1515073 124.91127712 -70.5625 123.39453125 C-68.10413224 119.61815746 -66.84620383 115.68979345 -65.5625 111.39453125 C-64.97037037 109.8066571 -64.36818114 108.22244566 -63.75 106.64453125 C-63.358125 105.57203125 -62.96625 104.49953125 -62.5625 103.39453125 C-63.47 102.81703125 -64.3775 102.23953125 -65.3125 101.64453125 C-68.08730039 99.72351559 -70.19595628 97.76107497 -72.5625 95.39453125 C-73.2225 95.39453125 -73.8825 95.39453125 -74.5625 95.39453125 C-74.830625 94.61078125 -75.09875 93.82703125 -75.375 93.01953125 C-76.41064432 90.11338202 -76.41064432 90.11338202 -79.5625 88.39453125 Z M-19.5625 88.39453125 C-20.05878906 89.05839844 -20.55507812 89.72226563 -21.06640625 90.40625 C-25.15789336 95.72440687 -28.86529518 99.83377824 -34.5625 103.39453125 C-33.67909284 106.77015211 -32.63315312 110.07415134 -31.5625 113.39453125 C-31.24345703 114.73837891 -31.24345703 114.73837891 -30.91796875 116.109375 C-29.8689478 119.29475824 -28.9595727 121.01442898 -26.5625 123.39453125 C-21.39112069 125.81262352 -15.671765 126.7766011 -10.10449219 127.87548828 C-6.15911395 128.6810851 -2.27306105 129.70105132 1.625 130.70703125 C2.95140706 131.03812877 4.27818954 131.36772869 5.60546875 131.6953125 C6.54003906 131.92605469 7.47460938 132.15679687 8.4375 132.39453125 C7.7779286 126.05819923 6.51392593 120.01573452 5 113.83203125 C4.67418945 112.47174805 4.67418945 112.47174805 4.34179688 111.08398438 C3.91567146 109.31933889 3.47769101 107.55750443 3.02661133 105.79907227 C2.4375 103.39453125 2.4375 103.39453125 2.08862305 101.30053711 C1.75319385 99.19514672 1.75319385 99.19514672 0.4375 96.39453125 C-2.14316507 94.88888879 -4.09903655 93.97912525 -6.875 93.08203125 C-7.53951172 92.84419922 -8.20402344 92.60636719 -8.88867188 92.36132812 C-10.77378289 91.68820738 -12.66798382 91.04070731 -14.5625 90.39453125 C-16.23380856 89.73958858 -17.90278502 89.07832098 -19.5625 88.39453125 Z M-60.5625 105.39453125 C-61.54647585 107.95527575 -62.52479967 110.51794617 -63.5 113.08203125 C-63.77779297 113.80326172 -64.05558594 114.52449219 -64.34179688 115.26757812 C-66.4840378 120.69845361 -66.4840378 120.69845361 -67.5625 126.39453125 C-66.43649399 128.11665809 -65.29074475 129.83131066 -64.01953125 131.44921875 C-62.49941072 133.47876306 -61.32021691 135.53482601 -60.125 137.76953125 C-57.94519672 141.80492656 -55.49916321 145.57862597 -52.89453125 149.3515625 C-51.61705879 151.31085311 -50.56370349 153.28298834 -49.5625 155.39453125 C-48.5725 154.73453125 -47.5825 154.07453125 -46.5625 153.39453125 C-46.5625 152.40453125 -46.5625 151.41453125 -46.5625 150.39453125 C-45.9025 150.39453125 -45.2425 150.39453125 -44.5625 150.39453125 C-44.05460937 149.48832031 -43.54671875 148.58210938 -43.0234375 147.6484375 C-42.32879956 146.41758781 -41.63343699 145.1871469 -40.9375 143.95703125 C-40.39706055 142.99893555 -40.39706055 142.99893555 -39.84570312 142.02148438 C-37.74702155 138.34043404 -35.53424788 134.84196908 -33.0625 131.39453125 C-31.32491659 128.81664111 -30.56985832 127.43058704 -29.9375 124.33203125 C-30.64334721 121.01454936 -31.86305513 118.46325881 -33.47265625 115.49609375 C-35.16159889 112.23927962 -36.32964081 108.84653698 -37.5625 105.39453125 C-38.38492188 105.47832031 -39.20734375 105.56210938 -40.0546875 105.6484375 C-47.06204102 106.28767645 -53.59564993 106.4167553 -60.5625 105.39453125 Z M-84.125 129.70703125 C-85.0109082 129.93414795 -85.89681641 130.16126465 -86.80957031 130.39526367 C-88.57755366 130.84853902 -90.34498344 131.30397978 -92.11181641 131.76171875 C-95.34087217 132.59552155 -98.57597377 133.40273321 -101.8125 134.20703125 C-102.74578125 134.44035156 -103.6790625 134.67367187 -104.640625 134.9140625 C-105.27484375 135.07261719 -105.9090625 135.23117188 -106.5625 135.39453125 C-105.5725 136.87953125 -105.5725 136.87953125 -104.5625 138.39453125 C-103.9025 138.39453125 -103.2425 138.39453125 -102.5625 138.39453125 C-102.2325 139.38453125 -101.9025 140.37453125 -101.5625 141.39453125 C-87.68225583 152.67746615 -69.12039965 158.24514279 -51.5625 159.39453125 C-52.53112456 155.30478312 -54.18386624 152.36478863 -56.625 149.01953125 C-61.58867024 142.1918667 -65.51750139 134.78743121 -69.5625 127.39453125 C-74.65039019 127.00797696 -79.25236091 128.42980368 -84.125 129.70703125 Z M-27.5625 127.39453125 C-29.16381806 128.98669065 -29.16381806 128.98669065 -30.4375 131.20703125 C-30.95054688 132.02816406 -31.46359375 132.84929687 -31.9921875 133.6953125 C-34.09461479 137.30918627 -36.07656007 140.98050139 -38.0390625 144.671875 C-39.97764478 148.13646949 -42.1742549 151.37478884 -44.4609375 154.6171875 C-45.73810157 156.32935566 -45.73810157 156.32935566 -45.5625 158.39453125 C-35.33918037 158.90569723 -25.94607016 156.33142627 -16.5625 152.39453125 C-15.85738281 152.10835937 -15.15226562 151.8221875 -14.42578125 151.52734375 C-8.549545 149.04558254 -2.7247078 146.16649937 2.4375 142.39453125 C2.4375 141.73453125 2.4375 141.07453125 2.4375 140.39453125 C3.365625 139.99234375 3.365625 139.99234375 4.3125 139.58203125 C6.7370233 138.43896277 6.7370233 138.43896277 8.4375 135.39453125 C-9.33892045 129.86359966 -9.33892045 129.86359966 -27.5625 127.39453125 Z " fill="#797979" transform="translate(138.5625,15.60546875)"/>
</svg>
